:SAMPLES-PER-SECOND 30
:FULLY-SPECIFIED
:DEGREES
402
root  -34.5935 30.7054 -6.28095 13.5488 57.5477 -7.05116
RightUpLeg  -39.7444 14.3575 -12.399
RightLeg  44.3848 3.53845 3.008
RightFoot  -13.3234 -0.154592 -0.94606
RightToes  -49.0159 -0.294208 -0.361066
Spine  13.5597 -5.05951 4.19017
Spine1  24.5807 -10.7231 4.96365
HEad  11.8413 21.2094 -8.09616
LeftShoulder1  0 -2.42657e-020 -4.95415e-022
LeftArm  -26.1571 -5.61522 -87.3905
LeftForeArm  39.152 -32.1051 -6.33689
LeftHand  -0.0152037 -11.3798 -0.217488
RightShoulder  0 2.42657e-020 1.07489e-018
RightArm  -27.1167 4.36041 77.0184
RightForeArm  88.2611 77.7034 54.6301
RightHand  -5.58769 24.7268 -24.7387
LeftUpLeg  -47.4039 12.5782 -1.92724
LeftLeg  80.8713 2.06085 8.95682
LeftFoot  -8.18089 -0.111428 -1.55806
LeftToes  -14.4 2.34596e-006 -6.06653e-008
403
root  -33.8448 30.8407 -6.09939 13.4588 55.5583 -6.44889
RightUpLeg  -37.8372 14.3157 -12.4623
RightLeg  43.3078 4.32027 3.54087
RightFoot  -12.9214 -0.168605 -1.11134
RightToes  -50.0883 -0.303662 -0.36474
Spine  13.209 -5.55744 3.6305
Spine1  24.0826 -11.2661 3.39454
HEad  13.7478 24.4929 -7.37281
LeftShoulder1  0 -2.42657e-020 -4.95415e-022
LeftArm  -27.2934 -4.13252 -87.0537
LeftForeArm  37.5289 -34.1643 -6.8615
LeftHand  -0.115145 -11.0172 0.824476
RightShoulder  0 2.42657e-020 1.07489e-018
RightArm  -18.979 3.17931 75.2012
RightForeArm  120.588 79.7404 79.1937
RightHand  -6.17024 23.8283 -28.2965
LeftUpLeg  -49.0122 10.7979 2.39731
LeftLeg  79.6811 1.89502 7.52722
LeftFoot  -8.95253 -0.119206 -1.52264
LeftToes  -15.4017 2.34596e-006 -6.06653e-008
404
root  -33.1512 30.8843 -6.00159 13.7186 52.6551 -5.53144
RightUpLeg  -36.9892 14.0406 -12.8589
RightLeg  43.2894 4.77476 3.91207
RightFoot  -12.5137 -0.167385 -1.14912
RightToes  -51.0195 -0.311937 -0.368548
Spine  13.0134 -5.41214 3.00147
Spine1  23.5688 -10.8897 2.64755
HEad  15.5088 25.9857 -7.19816
LeftShoulder1  0 -2.42657e-020 -4.95415e-022
LeftArm  -27.5602 -4.00721 -87.4032
LeftForeArm  37.3303 -34.9945 -7.07995
LeftHand  -0.148181 -9.78854 1.36137
RightShoulder  0 2.42657e-020 1.07489e-018
RightArm  -11.9151 3.58391 73.9776
RightForeArm  119.172 79.6686 77.1817
RightHand  -7.09499 24.5347 -31.4647
LeftUpLeg  -49.8326 9.81957 7.3502
LeftLeg  74.716 2.64785 7.63628
LeftFoot  -10.7146 -0.183548 -1.95713
LeftToes  -12.8491 2.34596e-006 -6.06653e-008
405
root  -32.4789 30.7854 -6.05232 14.379 49.6135 -4.77812
RightUpLeg  -37.4396 13.8022 -13.6703
RightLeg  44.1917 4.77668 4.03937
RightFoot  -12.4305 -0.159056 -1.08294
RightToes  -51.833 -0.319218 -0.371147
Spine  12.8895 -4.83525 2.61839
Spine1  23.0126 -9.96268 3.04369
HEad  15.9914 25.9912 -7.79765
LeftShoulder1  0 -2.42657e-020 -4.95415e-022
LeftArm  -26.6361 -5.37342 -88.3129
LeftForeArm  37.5835 -34.7981 -7.02765
LeftHand  -0.137118 -9.34349 1.30882
RightShoulder  0 2.42657e-020 1.07489e-018
RightArm  -6.75334 5.86369 73.973
RightForeArm  99.7011 76.3098 46.6072
RightHand  -7.92562 23.6797 -36.2111
LeftUpLeg  -50.2429 8.61226 12.66
LeftLeg  66.3946 3.59926 6.92516
LeftFoot  -12.4551 -0.251327 -2.3029
LeftToes  -11.0821 2.34596e-006 -6.06653e-008
406
root  -31.6609 30.5037 -6.30097 15.8651 47.6237 -3.11101
RightUpLeg  -37.9715 12.9614 -15.5789
RightLeg  45.6246 4.31484 3.83414
RightFoot  -13.7051 -0.162237 -0.972474
RightToes  -52.3269 -0.323659 -0.373365
Spine  13.1855 -4.21165 2.44348
Spine1  23.2274 -8.51494 3.20881
HEad  14.9203 25.2758 -9.14981
LeftShoulder1  0 -2.42657e-020 -4.95415e-022
LeftArm  -24.9326 -7.92115 -89.5789
LeftForeArm  38.2221 -34.6096 -6.97724
LeftHand  -0.176369 -9.59801 1.73182
RightShoulder  0 2.42657e-020 1.07489e-018
RightArm  -3.39155 12.3645 74.3038
RightForeArm  79.7944 62.2264 19.5174
RightHand  -8.76958 22.2452 -42.2545
LeftUpLeg  -50.3037 4.95772 17.5564
LeftLeg  55.9201 4.52805 5.81041
LeftFoot  -12.6849 -0.263438 -2.36977
LeftToes  -13.5329 2.34596e-006 -6.06653e-008
407
root  -30.8652 29.8107 -6.56623 17.3161 45.8375 -2.28403
RightUpLeg  -40.5388 13.2893 -17.7338
RightLeg  49.5475 2.85278 2.8919
RightFoot  -16.3696 -0.12675 -0.503698
RightToes  -53.0927 -0.330579 -0.376542
Spine  14.0961 -2.24126 3.31668
Spine1  24.5109 -3.31229 2.86026
HEad  13.4044 23.8265 -10.6969
LeftShoulder1  0 -2.42657e-020 -4.95415e-022
LeftArm  -21.6471 -12.0579 -92.6533
LeftForeArm  38.7036 -34.4587 -6.93706
LeftHand  -0.166385 -11.4734 1.28692
RightShoulder  0 2.42657e-020 1.07489e-018
RightArm  -4.9111 20.245 73.4691
RightForeArm  72.4957 44.5696 9.92632
RightHand  -8.86581 23.9212 -39.8403
LeftUpLeg  -52.5098 2.77843 22.4116
LeftLeg  48.9583 5.7223 5.74172
LeftFoot  -12.6246 -0.30765 -2.78064
LeftToes  -16.5507 2.34596e-006 -6.06653e-008
408
root  -29.9123 28.8964 -7.06047 19.5923 43.966 -0.605439
RightUpLeg  -43.9415 12.2238 -21.1654
RightLeg  54.5365 3.04287 3.66963
RightFoot  -19.417 -0.171191 -0.623063
RightToes  -54.6463 -0.344732 -0.382087
Spine  15.0389 -0.0859569 4.08448
Spine1  25.84 2.34696 2.31517
HEad  11.9083 21.4491 -11.179
LeftShoulder1  0 -2.42657e-020 -4.95415e-022
LeftArm  -16.9423 -15.5565 -95.8586
LeftForeArm  38.7619 -34.6467 -6.98639
LeftHand  -0.0907646 -12.3859 0.466754
RightShoulder  0 2.42657e-020 1.07489e-018
RightArm  -12.0065 27.5154 72.2776
RightForeArm  68.297 29.65 5.68763
RightHand  -7.61843 26.1288 -31.6559
LeftUpLeg  -56.6514 2.82188 23.7012
LeftLeg  47.7991 4.78337 4.61588
LeftFoot  -14.5178 -0.380303 -2.98507
LeftToes  -15.6892 2.34596e-006 -6.06653e-008
